<svg xmlns="http://www.w3.org/2000/svg" viewBox="0 0 64 64" role="img" aria-label="Day Visit Planner icon">
  <defs>
    <linearGradient id="bg" x1="0" y1="0" x2="1" y2="1">
      <stop offset="0%" stop-color="#005ab7"/>
      <stop offset="100%" stop-color="#0372e4"/>
    </linearGradient>
  </defs>
  <rect width="64" height="64" rx="16" fill="url(#bg)"/>
  <path d="M32 10c-8.3 0-15 6.7-15 15 0 11.2 12.4 24 14 25.6a1.5 1.5 0 0 0 2 0C34.6 49 47 36.2 47 25c0-8.3-6.7-15-15-15z" fill="#ffffff"/>
  <circle cx="32" cy="25" r="6" fill="#005ab7"/>
  <path d="M12 50c6.5-4 12.8-6 20-6 7.1 0 13.4 2 20 6" fill="none" stroke="#ffffff" stroke-width="3" stroke-linecap="round" opacity="0.9"/>
  <circle cx="52" cy="44" r="3.2" fill="#ffffff"/>
</svg>